<svg xmlns="http://www.w3.org/2000/svg" width="420.00" height="406.00" font-family="monospace" font-size="14">
  <text x="168.00" y="28.00" fill="#f9b481">¤</text>
  <text x="176.40" y="28.00" fill="#f9b481">¤</text>
  <text x="184.80" y="28.00" fill="#f9b481">*</text>
  <text x="193.20" y="28.00" fill="#f9b481">*</text>
  <text x="201.60" y="28.00" fill="#f9b481">*</text>
  <text x="210.00" y="28.00" fill="#f9b481">*</text>
  <text x="218.40" y="28.00" fill="#f9b481">*</text>
  <text x="226.80" y="28.00" fill="#f9b481">*</text>
  <text x="235.20" y="28.00" fill="#f9b481">*</text>
  <text x="243.60" y="28.00" fill="#f9b481">*</text>
  <text x="252.00" y="28.00" fill="#f9b481">*</text>
  <text x="260.40" y="28.00" fill="#f9b481">*</text>
  <text x="268.80" y="28.00" fill="#f9b481">*</text>
  <text x="277.20" y="28.00" fill="#f9b481">*</text>
  <text x="134.40" y="42.00" fill="#f9b481">¤</text>
  <text x="142.80" y="42.00" fill="#f9b481">¤</text>
  <text x="151.20" y="42.00" fill="#f9b481">*</text>
  <text x="159.60" y="42.00" fill="#f9b481">*</text>
  <text x="168.00" y="42.00" fill="#ffd9ae">&amp;</text>
  <text x="176.40" y="42.00" fill="#ffd9ae">&amp;</text>
  <text x="184.80" y="42.00" fill="#ffe3c3">¥</text>
  <text x="193.20" y="42.00" fill="#ffe3c3">¥</text>
  <text x="201.60" y="42.00" fill="#ffe3c3">¥</text>
  <text x="210.00" y="42.00" fill="#ffe3c3">¥</text>
  <text x="218.40" y="42.00" fill="#ffe3c3">¥</text>
  <text x="226.80" y="42.00" fill="#ffe3c3">¥</text>
  <text x="235.20" y="42.00" fill="#ffd9ae">&amp;</text>
  <text x="243.60" y="42.00" fill="#ffd9ae">&amp;</text>
  <text x="252.00" y="42.00" fill="#ffd9ae">%</text>
  <text x="260.40" y="42.00" fill="#ffd9ae">%</text>
  <text x="268.80" y="42.00" fill="#ffc897">§</text>
  <text x="277.20" y="42.00" fill="#ffc897">§</text>
  <text x="285.60" y="42.00" fill="#f9b481">*</text>
  <text x="294.00" y="42.00" fill="#f9b481">*</text>
  <text x="302.40" y="42.00" fill="#f9b481">*</text>
  <text x="310.80" y="42.00" fill="#f9b481">*</text>
  <text x="117.60" y="56.00" fill="#f9b481">*</text>
  <text x="126.00" y="56.00" fill="#f9b481">*</text>
  <text x="134.40" y="56.00" fill="#ffd9ae">%</text>
  <text x="142.80" y="56.00" fill="#ffd9ae">%</text>
  <text x="151.20" y="56.00" fill="#ffd9ae">&amp;</text>
  <text x="159.60" y="56.00" fill="#ffd9ae">&amp;</text>
  <text x="168.00" y="56.00" fill="#ffe3c3">¥</text>
  <text x="176.40" y="56.00" fill="#ffe3c3">¥</text>
  <text x="184.80" y="56.00" fill="#ffe3c3">¥</text>
  <text x="193.20" y="56.00" fill="#ffe3c3">¥</text>
  <text x="201.60" y="56.00" fill="#ffe3c3">¥</text>
  <text x="210.00" y="56.00" fill="#ffe3c3">¥</text>
  <text x="218.40" y="56.00" fill="#ffe3c3">¥</text>
  <text x="226.80" y="56.00" fill="#ffe3c3">¥</text>
  <text x="235.20" y="56.00" fill="#ffe3c3">¥</text>
  <text x="243.60" y="56.00" fill="#ffe3c3">¥</text>
  <text x="252.00" y="56.00" fill="#ffe3c3">¥</text>
  <text x="260.40" y="56.00" fill="#ffe3c3">¥</text>
  <text x="268.80" y="56.00" fill="#ffe3c3">¥</text>
  <text x="277.20" y="56.00" fill="#ffe3c3">¥</text>
  <text x="285.60" y="56.00" fill="#ffd9ae">%</text>
  <text x="294.00" y="56.00" fill="#ffd9ae">%</text>
  <text x="302.40" y="56.00" fill="#ffc897">§</text>
  <text x="310.80" y="56.00" fill="#ffc897">§</text>
  <text x="319.20" y="56.00" fill="#f9b481">*</text>
  <text x="327.60" y="56.00" fill="#f9b481">*</text>
  <text x="100.80" y="70.00" fill="#ffd9ae">&amp;</text>
  <text x="109.20" y="70.00" fill="#ffd9ae">&amp;</text>
  <text x="117.60" y="70.00" fill="#ffe3c3">¥</text>
  <text x="126.00" y="70.00" fill="#ffe3c3">¥</text>
  <text x="134.40" y="70.00" fill="#ffe3c3">¥</text>
  <text x="142.80" y="70.00" fill="#ffe3c3">¥</text>
  <text x="151.20" y="70.00" fill="#ffd9ae">&amp;</text>
  <text x="159.60" y="70.00" fill="#ffd9ae">&amp;</text>
  <text x="168.00" y="70.00" fill="#ffe3c3">¥</text>
  <text x="176.40" y="70.00" fill="#ffe3c3">¥</text>
  <text x="184.80" y="70.00" fill="#ffe3c3">¥</text>
  <text x="193.20" y="70.00" fill="#ffe3c3">¥</text>
  <text x="201.60" y="70.00" fill="#ffe3c3">¥</text>
  <text x="210.00" y="70.00" fill="#ffe3c3">¥</text>
  <text x="218.40" y="70.00" fill="#ffe3c3">¥</text>
  <text x="226.80" y="70.00" fill="#ffe3c3">¥</text>
  <text x="235.20" y="70.00" fill="#ffe3c3">¥</text>
  <text x="243.60" y="70.00" fill="#ffe3c3">¥</text>
  <text x="252.00" y="70.00" fill="#ffe3c3">¥</text>
  <text x="260.40" y="70.00" fill="#ffe3c3">¥</text>
  <text x="268.80" y="70.00" fill="#ffe3c3">¥</text>
  <text x="277.20" y="70.00" fill="#ffe3c3">¥</text>
  <text x="285.60" y="70.00" fill="#ffe3c3">¥</text>
  <text x="294.00" y="70.00" fill="#ffe3c3">¥</text>
  <text x="302.40" y="70.00" fill="#ffd9ae">&amp;</text>
  <text x="310.80" y="70.00" fill="#ffd9ae">&amp;</text>
  <text x="319.20" y="70.00" fill="#ffc897">§</text>
  <text x="327.60" y="70.00" fill="#ffc897">§</text>
  <text x="336.00" y="70.00" fill="#f9b481">*</text>
  <text x="344.40" y="70.00" fill="#f9b481">*</text>
  <text x="84.00" y="84.00" fill="#dc5a58">:</text>
  <text x="92.40" y="84.00" fill="#dc5a58">:</text>
  <text x="100.80" y="84.00" fill="#ea625c">¬</text>
  <text x="109.20" y="84.00" fill="#ea625c">¬</text>
  <text x="117.60" y="84.00" fill="#ea625c">¬</text>
  <text x="126.00" y="84.00" fill="#ea625c">¬</text>
  <text x="134.40" y="84.00" fill="#ea625c">¬</text>
  <text x="142.80" y="84.00" fill="#ea625c">¬</text>
  <text x="151.20" y="84.00" fill="#ea625c">¬</text>
  <text x="159.60" y="84.00" fill="#ea625c">¬</text>
  <text x="168.00" y="84.00" fill="#ea625c">¬</text>
  <text x="176.40" y="84.00" fill="#ea625c">¬</text>
  <text x="184.80" y="84.00" fill="#ffd9ae">&amp;</text>
  <text x="193.20" y="84.00" fill="#ffd9ae">&amp;</text>
  <text x="201.60" y="84.00" fill="#ffe3c3">¥</text>
  <text x="210.00" y="84.00" fill="#ffe3c3">¥</text>
  <text x="218.40" y="84.00" fill="#ffe3c3">¥</text>
  <text x="226.80" y="84.00" fill="#ffe3c3">¥</text>
  <text x="235.20" y="84.00" fill="#ffd9ae">&amp;</text>
  <text x="243.60" y="84.00" fill="#ffd9ae">&amp;</text>
  <text x="252.00" y="84.00" fill="#ffd9ae">&amp;</text>
  <text x="260.40" y="84.00" fill="#ffd9ae">&amp;</text>
  <text x="268.80" y="84.00" fill="#ffe3c3">¥</text>
  <text x="277.20" y="84.00" fill="#ffe3c3">¥</text>
  <text x="285.60" y="84.00" fill="#ffe3c3">¥</text>
  <text x="294.00" y="84.00" fill="#ffe3c3">¥</text>
  <text x="302.40" y="84.00" fill="#ffe3c3">¥</text>
  <text x="310.80" y="84.00" fill="#ffe3c3">¥</text>
  <text x="319.20" y="84.00" fill="#ffd9ae">%</text>
  <text x="327.60" y="84.00" fill="#ffd9ae">%</text>
  <text x="336.00" y="84.00" fill="#ffc897">§</text>
  <text x="344.40" y="84.00" fill="#ffc897">§</text>
  <text x="352.80" y="84.00" fill="#f9b481">¤</text>
  <text x="361.20" y="84.00" fill="#f9b481">¤</text>
  <text x="67.20" y="98.00" fill="#ffc897">¤</text>
  <text x="75.60" y="98.00" fill="#ffc897">¤</text>
  <text x="84.00" y="98.00" fill="#ffc897">§</text>
  <text x="92.40" y="98.00" fill="#ffc897">§</text>
  <text x="100.80" y="98.00" fill="#ffe3c3">&amp;</text>
  <text x="109.20" y="98.00" fill="#ffe3c3">&amp;</text>
  <text x="117.60" y="98.00" fill="#ffe3c3">¥</text>
  <text x="126.00" y="98.00" fill="#ffe3c3">¥</text>
  <text x="134.40" y="98.00" fill="#ffe3c3">&amp;</text>
  <text x="142.80" y="98.00" fill="#ffe3c3">&amp;</text>
  <text x="151.20" y="98.00" fill="#ffe3c3">&amp;</text>
  <text x="159.60" y="98.00" fill="#ffe3c3">&amp;</text>
  <text x="168.00" y="98.00" fill="#dc5a58">:</text>
  <text x="176.40" y="98.00" fill="#dc5a58">:</text>
  <text x="184.80" y="98.00" fill="#ea625c">¬</text>
  <text x="193.20" y="98.00" fill="#ea625c">¬</text>
  <text x="201.60" y="98.00" fill="#ea625c">¬</text>
  <text x="210.00" y="98.00" fill="#ea625c">¬</text>
  <text x="218.40" y="98.00" fill="#ea625c">¬</text>
  <text x="226.80" y="98.00" fill="#ea625c">¬</text>
  <text x="235.20" y="98.00" fill="#ea625c">¬</text>
  <text x="243.60" y="98.00" fill="#ea625c">¬</text>
  <text x="252.00" y="98.00" fill="#fc7764">+</text>
  <text x="260.40" y="98.00" fill="#fc7764">+</text>
  <text x="268.80" y="98.00" fill="#ffe3c3">¥</text>
  <text x="277.20" y="98.00" fill="#ffe3c3">¥</text>
  <text x="285.60" y="98.00" fill="#ffe3c3">¥</text>
  <text x="294.00" y="98.00" fill="#ffe3c3">¥</text>
  <text x="302.40" y="98.00" fill="#ffe3c3">¥</text>
  <text x="310.80" y="98.00" fill="#ffe3c3">¥</text>
  <text x="319.20" y="98.00" fill="#ffd9ae">&amp;</text>
  <text x="327.60" y="98.00" fill="#ffd9ae">&amp;</text>
  <text x="336.00" y="98.00" fill="#ffc897">§</text>
  <text x="344.40" y="98.00" fill="#ffc897">§</text>
  <text x="352.80" y="98.00" fill="#f9b481">*</text>
  <text x="361.20" y="98.00" fill="#f9b481">*</text>
  <text x="50.40" y="112.00" fill="#f9b481">¤</text>
  <text x="58.80" y="112.00" fill="#f9b481">¤</text>
  <text x="67.20" y="112.00" fill="#ffe3c3">¥</text>
  <text x="75.60" y="112.00" fill="#ffe3c3">¥</text>
  <text x="84.00" y="112.00" fill="#ffe3c3">¥</text>
  <text x="92.40" y="112.00" fill="#ffe3c3">¥</text>
  <text x="100.80" y="112.00" fill="#ffe3c3">¥</text>
  <text x="109.20" y="112.00" fill="#ffe3c3">¥</text>
  <text x="117.60" y="112.00" fill="#ffe3c3">¥</text>
  <text x="126.00" y="112.00" fill="#ffe3c3">¥</text>
  <text x="134.40" y="112.00" fill="#ffe3c3">¥</text>
  <text x="142.80" y="112.00" fill="#ffe3c3">¥</text>
  <text x="151.20" y="112.00" fill="#ffe3c3">¥</text>
  <text x="159.60" y="112.00" fill="#ffe3c3">¥</text>
  <text x="168.00" y="112.00" fill="#ffe3c3">¥</text>
  <text x="176.40" y="112.00" fill="#ffe3c3">¥</text>
  <text x="184.80" y="112.00" fill="#ffe3c3">¥</text>
  <text x="193.20" y="112.00" fill="#ffe3c3">¥</text>
  <text x="201.60" y="112.00" fill="#dc5a58">:</text>
  <text x="210.00" y="112.00" fill="#dc5a58">:</text>
  <text x="218.40" y="112.00" fill="#dc5a58">:</text>
  <text x="226.80" y="112.00" fill="#dc5a58">:</text>
  <text x="235.20" y="112.00" fill="#ea625c">¬</text>
  <text x="243.60" y="112.00" fill="#ea625c">¬</text>
  <text x="252.00" y="112.00" fill="#ea625c">¬</text>
  <text x="260.40" y="112.00" fill="#ea625c">¬</text>
  <text x="268.80" y="112.00" fill="#ea625c">¬</text>
  <text x="277.20" y="112.00" fill="#ea625c">¬</text>
  <text x="285.60" y="112.00" fill="#dc5a58">:</text>
  <text x="294.00" y="112.00" fill="#dc5a58">:</text>
  <text x="302.40" y="112.00" fill="#ffe3c3">¥</text>
  <text x="310.80" y="112.00" fill="#ffe3c3">¥</text>
  <text x="319.20" y="112.00" fill="#ffe3c3">¥</text>
  <text x="327.60" y="112.00" fill="#ffe3c3">¥</text>
  <text x="336.00" y="112.00" fill="#ffd9ae">&amp;</text>
  <text x="344.40" y="112.00" fill="#ffd9ae">&amp;</text>
  <text x="352.80" y="112.00" fill="#ffc897">§</text>
  <text x="361.20" y="112.00" fill="#ffc897">§</text>
  <text x="50.40" y="126.00" fill="#f9b481">*</text>
  <text x="58.80" y="126.00" fill="#f9b481">*</text>
  <text x="67.20" y="126.00" fill="#ffc897">%</text>
  <text x="75.60" y="126.00" fill="#ffc897">%</text>
  <text x="84.00" y="126.00" fill="#dd9573">†</text>
  <text x="92.40" y="126.00" fill="#dd9573">†</text>
  <text x="100.80" y="126.00" fill="#cc5454">:</text>
  <text x="109.20" y="126.00" fill="#cc5454">:</text>
  <text x="117.60" y="126.00" fill="#cc5454">:</text>
  <text x="126.00" y="126.00" fill="#cc5454">:</text>
  <text x="134.40" y="126.00" fill="#cc5454">:</text>
  <text x="142.80" y="126.00" fill="#cc5454">:</text>
  <text x="151.20" y="126.00" fill="#bc5f46">·</text>
  <text x="159.60" y="126.00" fill="#bc5f46">·</text>
  <text x="168.00" y="126.00" fill="#ffd9ae">&amp;</text>
  <text x="176.40" y="126.00" fill="#ffd9ae">&amp;</text>
  <text x="184.80" y="126.00" fill="#ffe3c3">¥</text>
  <text x="193.20" y="126.00" fill="#ffe3c3">¥</text>
  <text x="201.60" y="126.00" fill="#ffe3c3">¥</text>
  <text x="210.00" y="126.00" fill="#ffe3c3">¥</text>
  <text x="218.40" y="126.00" fill="#ffe3c3">¥</text>
  <text x="226.80" y="126.00" fill="#ffe3c3">¥</text>
  <text x="235.20" y="126.00" fill="#ffd9ae">%</text>
  <text x="243.60" y="126.00" fill="#ffd9ae">%</text>
  <text x="252.00" y="126.00" fill="#cc5454">:</text>
  <text x="260.40" y="126.00" fill="#cc5454">:</text>
  <text x="268.80" y="126.00" fill="#ea625c">¬</text>
  <text x="277.20" y="126.00" fill="#ea625c">¬</text>
  <text x="285.60" y="126.00" fill="#ea625c">¬</text>
  <text x="294.00" y="126.00" fill="#ea625c">¬</text>
  <text x="302.40" y="126.00" fill="#dc5a58">:</text>
  <text x="310.80" y="126.00" fill="#dc5a58">:</text>
  <text x="319.20" y="126.00" fill="#ffe3c3">&amp;</text>
  <text x="327.60" y="126.00" fill="#ffe3c3">&amp;</text>
  <text x="336.00" y="126.00" fill="#ffd9ae">%</text>
  <text x="344.40" y="126.00" fill="#ffd9ae">%</text>
  <text x="352.80" y="126.00" fill="#ea625c">=</text>
  <text x="361.20" y="126.00" fill="#ea625c">=</text>
  <text x="369.60" y="126.00" fill="#fefbfb">@</text>
  <text x="378.00" y="126.00" fill="#fefbfb">@</text>
  <text x="67.20" y="140.00" fill="#dd9573">†</text>
  <text x="75.60" y="140.00" fill="#dd9573">†</text>
  <text x="84.00" y="140.00" fill="#dd9573">†</text>
  <text x="92.40" y="140.00" fill="#dd9573">†</text>
  <text x="100.80" y="140.00" fill="#f56b60">¬</text>
  <text x="109.20" y="140.00" fill="#f56b60">¬</text>
  <text x="117.60" y="140.00" fill="#ea625c">¬</text>
  <text x="126.00" y="140.00" fill="#ea625c">¬</text>
  <text x="134.40" y="140.00" fill="#f56b60">=</text>
  <text x="142.80" y="140.00" fill="#f56b60">=</text>
  <text x="151.20" y="140.00" fill="#ea625c">¬</text>
  <text x="159.60" y="140.00" fill="#ea625c">¬</text>
  <text x="168.00" y="140.00" fill="#cc5454">:</text>
  <text x="176.40" y="140.00" fill="#cc5454">:</text>
  <text x="184.80" y="140.00" fill="#cc5454">·</text>
  <text x="193.20" y="140.00" fill="#cc5454">·</text>
  <text x="201.60" y="140.00" fill="#ffd9ae">&amp;</text>
  <text x="210.00" y="140.00" fill="#ffd9ae">&amp;</text>
  <text x="218.40" y="140.00" fill="#ffe3c3">¥</text>
  <text x="226.80" y="140.00" fill="#ffe3c3">¥</text>
  <text x="235.20" y="140.00" fill="#ffe3c3">¥</text>
  <text x="243.60" y="140.00" fill="#ffe3c3">¥</text>
  <text x="252.00" y="140.00" fill="#ffe3c3">¥</text>
  <text x="260.40" y="140.00" fill="#ffe3c3">¥</text>
  <text x="268.80" y="140.00" fill="#ffd9ae">&amp;</text>
  <text x="277.20" y="140.00" fill="#ffd9ae">&amp;</text>
  <text x="285.60" y="140.00" fill="#cc5454">:</text>
  <text x="294.00" y="140.00" fill="#cc5454">:</text>
  <text x="302.40" y="140.00" fill="#dc5a58">:</text>
  <text x="310.80" y="140.00" fill="#dc5a58">:</text>
  <text x="319.20" y="140.00" fill="#ea625c">¬</text>
  <text x="327.60" y="140.00" fill="#ea625c">¬</text>
  <text x="336.00" y="140.00" fill="#ea625c">¬</text>
  <text x="344.40" y="140.00" fill="#ea625c">¬</text>
  <text x="352.80" y="140.00" fill="#ea625c">¬</text>
  <text x="361.20" y="140.00" fill="#ea625c">¬</text>
  <text x="369.60" y="140.00" fill="#cc5454">:</text>
  <text x="378.00" y="140.00" fill="#cc5454">:</text>
  <text x="100.80" y="154.00" fill="#fc7764">+</text>
  <text x="109.20" y="154.00" fill="#fc7764">+</text>
  <text x="117.60" y="154.00" fill="#ea625c">¬</text>
  <text x="126.00" y="154.00" fill="#ea625c">¬</text>
  <text x="134.40" y="154.00" fill="#fc7764">+</text>
  <text x="142.80" y="154.00" fill="#fc7764">+</text>
  <text x="151.20" y="154.00" fill="#fc7764">+</text>
  <text x="159.60" y="154.00" fill="#fc7764">+</text>
  <text x="168.00" y="154.00" fill="#f56b60">=</text>
  <text x="176.40" y="154.00" fill="#f56b60">=</text>
  <text x="184.80" y="154.00" fill="#dc5a58">¬</text>
  <text x="193.20" y="154.00" fill="#dc5a58">¬</text>
  <text x="201.60" y="154.00" fill="#cc5454">:</text>
  <text x="210.00" y="154.00" fill="#cc5454">:</text>
  <text x="218.40" y="154.00" fill="#ffc897">¤</text>
  <text x="226.80" y="154.00" fill="#ffc897">¤</text>
  <text x="235.20" y="154.00" fill="#ffd9ae">%</text>
  <text x="243.60" y="154.00" fill="#ffd9ae">%</text>
  <text x="252.00" y="154.00" fill="#ffe3c3">¥</text>
  <text x="260.40" y="154.00" fill="#ffe3c3">¥</text>
  <text x="268.80" y="154.00" fill="#ffe3c3">¥</text>
  <text x="277.20" y="154.00" fill="#ffe3c3">¥</text>
  <text x="285.60" y="154.00" fill="#ffe3c3">¥</text>
  <text x="294.00" y="154.00" fill="#ffe3c3">¥</text>
  <text x="302.40" y="154.00" fill="#ffd9ae">&amp;</text>
  <text x="310.80" y="154.00" fill="#ffd9ae">&amp;</text>
  <text x="319.20" y="154.00" fill="#cc5454">:</text>
  <text x="327.60" y="154.00" fill="#cc5454">:</text>
  <text x="336.00" y="154.00" fill="#cc5454">:</text>
  <text x="344.40" y="154.00" fill="#cc5454">:</text>
  <text x="352.80" y="154.00" fill="#cc5454">:</text>
  <text x="361.20" y="154.00" fill="#cc5454">:</text>
  <text x="369.60" y="154.00" fill="#cc5454">·</text>
  <text x="378.00" y="154.00" fill="#cc5454">·</text>
  <text x="386.40" y="154.00" fill="#f9b481">¤</text>
  <text x="394.80" y="154.00" fill="#f9b481">¤</text>
  <text x="100.80" y="168.00" fill="#fc7764">+</text>
  <text x="109.20" y="168.00" fill="#fc7764">+</text>
  <text x="117.60" y="168.00" fill="#ea625c">¬</text>
  <text x="126.00" y="168.00" fill="#ea625c">¬</text>
  <text x="134.40" y="168.00" fill="#ffe7cf">¥</text>
  <text x="142.80" y="168.00" fill="#ffe7cf">¥</text>
  <text x="151.20" y="168.00" fill="#fc7764">=</text>
  <text x="159.60" y="168.00" fill="#fc7764">=</text>
  <text x="168.00" y="168.00" fill="#fc7764">+</text>
  <text x="176.40" y="168.00" fill="#fc7764">+</text>
  <text x="184.80" y="168.00" fill="#f56b60">=</text>
  <text x="193.20" y="168.00" fill="#f56b60">=</text>
  <text x="201.60" y="168.00" fill="#f56b60">=</text>
  <text x="210.00" y="168.00" fill="#f56b60">=</text>
  <text x="218.40" y="168.00" fill="#cc5454">:</text>
  <text x="226.80" y="168.00" fill="#cc5454">:</text>
  <text x="235.20" y="168.00" fill="#cc5454">:</text>
  <text x="243.60" y="168.00" fill="#cc5454">:</text>
  <text x="252.00" y="168.00" fill="#cc5454">·</text>
  <text x="260.40" y="168.00" fill="#cc5454">·</text>
  <text x="268.80" y="168.00" fill="#ffc897">§</text>
  <text x="277.20" y="168.00" fill="#ffc897">§</text>
  <text x="285.60" y="168.00" fill="#ffd9ae">&amp;</text>
  <text x="294.00" y="168.00" fill="#ffd9ae">&amp;</text>
  <text x="302.40" y="168.00" fill="#ffe3c3">¥</text>
  <text x="310.80" y="168.00" fill="#ffe3c3">¥</text>
  <text x="319.20" y="168.00" fill="#ffe3c3">¥</text>
  <text x="327.60" y="168.00" fill="#ffe3c3">¥</text>
  <text x="336.00" y="168.00" fill="#ffe3c3">¥</text>
  <text x="344.40" y="168.00" fill="#ffe3c3">¥</text>
  <text x="352.80" y="168.00" fill="#ffd9ae">&amp;</text>
  <text x="361.20" y="168.00" fill="#ffd9ae">&amp;</text>
  <text x="369.60" y="168.00" fill="#ffd9ae">%</text>
  <text x="378.00" y="168.00" fill="#ffd9ae">%</text>
  <text x="386.40" y="168.00" fill="#ffd9ae">%</text>
  <text x="394.80" y="168.00" fill="#ffd9ae">%</text>
  <text x="403.20" y="168.00" fill="#f9b481">*</text>
  <text x="411.60" y="168.00" fill="#f9b481">*</text>
  <text x="100.80" y="182.00" fill="#ea625c">¬</text>
  <text x="109.20" y="182.00" fill="#ea625c">¬</text>
  <text x="117.60" y="182.00" fill="#ffe7cf">¥</text>
  <text x="126.00" y="182.00" fill="#ffe7cf">¥</text>
  <text x="134.40" y="182.00" fill="#ffe7cf">¥</text>
  <text x="142.80" y="182.00" fill="#ffe7cf">¥</text>
  <text x="151.20" y="182.00" fill="#ffe7cf">¥</text>
  <text x="159.60" y="182.00" fill="#ffe7cf">¥</text>
  <text x="168.00" y="182.00" fill="#fc7764">+</text>
  <text x="176.40" y="182.00" fill="#fc7764">+</text>
  <text x="184.80" y="182.00" fill="#ea625c">¬</text>
  <text x="193.20" y="182.00" fill="#ea625c">¬</text>
  <text x="201.60" y="182.00" fill="#cc5454">:</text>
  <text x="210.00" y="182.00" fill="#cc5454">:</text>
  <text x="218.40" y="182.00" fill="#dc5a58">:</text>
  <text x="226.80" y="182.00" fill="#dc5a58">:</text>
  <text x="235.20" y="182.00" fill="#f56b60">=</text>
  <text x="243.60" y="182.00" fill="#f56b60">=</text>
  <text x="252.00" y="182.00" fill="#dc5a58">:</text>
  <text x="260.40" y="182.00" fill="#dc5a58">:</text>
  <text x="268.80" y="182.00" fill="#cc5454">:</text>
  <text x="277.20" y="182.00" fill="#cc5454">:</text>
  <text x="285.60" y="182.00" fill="#cc5454">:</text>
  <text x="294.00" y="182.00" fill="#cc5454">:</text>
  <text x="302.40" y="182.00" fill="#f9b481">¤</text>
  <text x="310.80" y="182.00" fill="#f9b481">¤</text>
  <text x="319.20" y="182.00" fill="#ffd9ae">%</text>
  <text x="327.60" y="182.00" fill="#ffd9ae">%</text>
  <text x="336.00" y="182.00" fill="#ffe3c3">¥</text>
  <text x="344.40" y="182.00" fill="#ffe3c3">¥</text>
  <text x="352.80" y="182.00" fill="#ffe3c3">¥</text>
  <text x="361.20" y="182.00" fill="#ffe3c3">¥</text>
  <text x="369.60" y="182.00" fill="#ffe3c3">¥</text>
  <text x="378.00" y="182.00" fill="#ffe3c3">¥</text>
  <text x="386.40" y="182.00" fill="#ffe3c3">¥</text>
  <text x="394.80" y="182.00" fill="#ffe3c3">¥</text>
  <text x="403.20" y="182.00" fill="#f9b481">*</text>
  <text x="411.60" y="182.00" fill="#f9b481">*</text>
  <text x="100.80" y="196.00" fill="#dc5a58">:</text>
  <text x="109.20" y="196.00" fill="#dc5a58">:</text>
  <text x="117.60" y="196.00" fill="#ffe7cf">¥</text>
  <text x="126.00" y="196.00" fill="#ffe7cf">¥</text>
  <text x="134.40" y="196.00" fill="#dd9573">†</text>
  <text x="142.80" y="196.00" fill="#dd9573">†</text>
  <text x="151.20" y="196.00" fill="#a45441">·</text>
  <text x="159.60" y="196.00" fill="#a45441">·</text>
  <text x="168.00" y="196.00" fill="#ffe7cf">¥</text>
  <text x="176.40" y="196.00" fill="#ffe7cf">¥</text>
  <text x="184.80" y="196.00" fill="#f56b60">=</text>
  <text x="193.20" y="196.00" fill="#f56b60">=</text>
  <text x="201.60" y="196.00" fill="#ffe7cf">¥</text>
  <text x="210.00" y="196.00" fill="#ffe7cf">¥</text>
  <text x="218.40" y="196.00" fill="#f1907d">†</text>
  <text x="226.80" y="196.00" fill="#f1907d">†</text>
  <text x="235.20" y="196.00" fill="#f56b60">=</text>
  <text x="243.60" y="196.00" fill="#f56b60">=</text>
  <text x="252.00" y="196.00" fill="#f56b60">=</text>
  <text x="260.40" y="196.00" fill="#f56b60">=</text>
  <text x="268.80" y="196.00" fill="#ea625c">¬</text>
  <text x="277.20" y="196.00" fill="#ea625c">¬</text>
  <text x="285.60" y="196.00" fill="#dc5a58">:</text>
  <text x="294.00" y="196.00" fill="#dc5a58">:</text>
  <text x="302.40" y="196.00" fill="#cc5454">:</text>
  <text x="310.80" y="196.00" fill="#cc5454">:</text>
  <text x="319.20" y="196.00" fill="#cc5454">:</text>
  <text x="327.60" y="196.00" fill="#cc5454">:</text>
  <text x="336.00" y="196.00" fill="#f9b481">¤</text>
  <text x="344.40" y="196.00" fill="#f9b481">¤</text>
  <text x="352.80" y="196.00" fill="#ffc897">§</text>
  <text x="361.20" y="196.00" fill="#ffc897">§</text>
  <text x="369.60" y="196.00" fill="#ffc897">§</text>
  <text x="378.00" y="196.00" fill="#ffc897">§</text>
  <text x="386.40" y="196.00" fill="#f9b481">*</text>
  <text x="394.80" y="196.00" fill="#f9b481">*</text>
  <text x="100.80" y="210.00" fill="#dc5a58">:</text>
  <text x="109.20" y="210.00" fill="#dc5a58">:</text>
  <text x="117.60" y="210.00" fill="#ffe7cf">¥</text>
  <text x="126.00" y="210.00" fill="#ffe7cf">¥</text>
  <text x="134.40" y="210.00" fill="#ffe7cf">¥</text>
  <text x="142.80" y="210.00" fill="#ffe7cf">¥</text>
  <text x="151.20" y="210.00" fill="#ffe7cf">¥</text>
  <text x="159.60" y="210.00" fill="#ffe7cf">¥</text>
  <text x="168.00" y="210.00" fill="#ffe7cf">¥</text>
  <text x="176.40" y="210.00" fill="#ffe7cf">¥</text>
  <text x="184.80" y="210.00" fill="#f56b60">=</text>
  <text x="193.20" y="210.00" fill="#f56b60">=</text>
  <text x="201.60" y="210.00" fill="#ffe7cf">¥</text>
  <text x="210.00" y="210.00" fill="#ffe7cf">¥</text>
  <text x="218.40" y="210.00" fill="#dd9573">+</text>
  <text x="226.80" y="210.00" fill="#dd9573">+</text>
  <text x="235.20" y="210.00" fill="#f56b60">=</text>
  <text x="243.60" y="210.00" fill="#f56b60">=</text>
  <text x="252.00" y="210.00" fill="#f56b60">=</text>
  <text x="260.40" y="210.00" fill="#f56b60">=</text>
  <text x="268.80" y="210.00" fill="#fc7764">=</text>
  <text x="277.20" y="210.00" fill="#fc7764">=</text>
  <text x="285.60" y="210.00" fill="#ea625c">¬</text>
  <text x="294.00" y="210.00" fill="#ea625c">¬</text>
  <text x="302.40" y="210.00" fill="#f56b60">=</text>
  <text x="310.80" y="210.00" fill="#f56b60">=</text>
  <text x="319.20" y="210.00" fill="#dc5a58">:</text>
  <text x="327.60" y="210.00" fill="#dc5a58">:</text>
  <text x="336.00" y="210.00" fill="#cc5454">:</text>
  <text x="344.40" y="210.00" fill="#cc5454">:</text>
  <text x="352.80" y="210.00" fill="#dd9573">†</text>
  <text x="361.20" y="210.00" fill="#dd9573">†</text>
  <text x="369.60" y="210.00" fill="#dd9573">†</text>
  <text x="378.00" y="210.00" fill="#dd9573">†</text>
  <text x="117.60" y="224.00" fill="#f9b481">*</text>
  <text x="126.00" y="224.00" fill="#f9b481">*</text>
  <text x="134.40" y="224.00" fill="#ffe7cf">¥</text>
  <text x="142.80" y="224.00" fill="#ffe7cf">¥</text>
  <text x="151.20" y="224.00" fill="#ffe7cf">¥</text>
  <text x="159.60" y="224.00" fill="#ffe7cf">¥</text>
  <text x="168.00" y="224.00" fill="#ffe7cf">¥</text>
  <text x="176.40" y="224.00" fill="#ffe7cf">¥</text>
  <text x="184.80" y="224.00" fill="#ea625c">¬</text>
  <text x="193.20" y="224.00" fill="#ea625c">¬</text>
  <text x="201.60" y="224.00" fill="#cc5454">:</text>
  <text x="210.00" y="224.00" fill="#cc5454">:</text>
  <text x="218.40" y="224.00" fill="#ea625c">¬</text>
  <text x="226.80" y="224.00" fill="#ea625c">¬</text>
  <text x="235.20" y="224.00" fill="#fc7764">=</text>
  <text x="243.60" y="224.00" fill="#fc7764">=</text>
  <text x="252.00" y="224.00" fill="#dc5a58">:</text>
  <text x="260.40" y="224.00" fill="#dc5a58">:</text>
  <text x="268.80" y="224.00" fill="#fc7764">+</text>
  <text x="277.20" y="224.00" fill="#fc7764">+</text>
  <text x="285.60" y="224.00" fill="#fc7764">+</text>
  <text x="294.00" y="224.00" fill="#fc7764">+</text>
  <text x="302.40" y="224.00" fill="#ea625c">¬</text>
  <text x="310.80" y="224.00" fill="#ea625c">¬</text>
  <text x="319.20" y="224.00" fill="#ea625c">¬</text>
  <text x="327.60" y="224.00" fill="#ea625c">¬</text>
  <text x="336.00" y="224.00" fill="#f56b60">=</text>
  <text x="344.40" y="224.00" fill="#f56b60">=</text>
  <text x="352.80" y="224.00" fill="#dc5a58">:</text>
  <text x="361.20" y="224.00" fill="#dc5a58">:</text>
  <text x="134.40" y="238.00" fill="#f1907d">†</text>
  <text x="142.80" y="238.00" fill="#f1907d">†</text>
  <text x="151.20" y="238.00" fill="#f1907d">‡</text>
  <text x="159.60" y="238.00" fill="#f1907d">‡</text>
  <text x="168.00" y="238.00" fill="#f1907d">†</text>
  <text x="176.40" y="238.00" fill="#f1907d">†</text>
  <text x="184.80" y="238.00" fill="#dc5a58">:</text>
  <text x="193.20" y="238.00" fill="#dc5a58">:</text>
  <text x="201.60" y="238.00" fill="#cc5454">:</text>
  <text x="210.00" y="238.00" fill="#cc5454">:</text>
  <text x="218.40" y="238.00" fill="#f56b60">=</text>
  <text x="226.80" y="238.00" fill="#f56b60">=</text>
  <text x="235.20" y="238.00" fill="#fc7764">=</text>
  <text x="243.60" y="238.00" fill="#fc7764">=</text>
  <text x="252.00" y="238.00" fill="#f56b60">=</text>
  <text x="260.40" y="238.00" fill="#f56b60">=</text>
  <text x="268.80" y="238.00" fill="#cc5454">:</text>
  <text x="277.20" y="238.00" fill="#cc5454">:</text>
  <text x="285.60" y="238.00" fill="#fc7764">=</text>
  <text x="294.00" y="238.00" fill="#fc7764">=</text>
  <text x="302.40" y="238.00" fill="#fc7764">+</text>
  <text x="310.80" y="238.00" fill="#fc7764">+</text>
  <text x="319.20" y="238.00" fill="#f56b60">=</text>
  <text x="327.60" y="238.00" fill="#f56b60">=</text>
  <text x="336.00" y="238.00" fill="#fc7764">=</text>
  <text x="344.40" y="238.00" fill="#fc7764">=</text>
  <text x="352.80" y="238.00" fill="#fc7764">=</text>
  <text x="361.20" y="238.00" fill="#fc7764">=</text>
  <text x="369.60" y="238.00" fill="#8c4536">:</text>
  <text x="378.00" y="238.00" fill="#8c4536">:</text>
  <text x="168.00" y="252.00" fill="#f3ebea">¥</text>
  <text x="176.40" y="252.00" fill="#f3ebea">¥</text>
  <text x="184.80" y="252.00" fill="#f3ebea">&amp;</text>
  <text x="193.20" y="252.00" fill="#f3ebea">&amp;</text>
  <text x="218.40" y="252.00" fill="#974c3b">¬</text>
  <text x="226.80" y="252.00" fill="#974c3b">¬</text>
  <text x="235.20" y="252.00" fill="#cb484c">=</text>
  <text x="243.60" y="252.00" fill="#cb484c">=</text>
  <text x="252.00" y="252.00" fill="#cb484c">=</text>
  <text x="260.40" y="252.00" fill="#cb484c">=</text>
  <text x="268.80" y="252.00" fill="#dd4c4f">=</text>
  <text x="277.20" y="252.00" fill="#dd4c4f">=</text>
  <text x="285.60" y="252.00" fill="#f56b60">†</text>
  <text x="294.00" y="252.00" fill="#f56b60">†</text>
  <text x="302.40" y="252.00" fill="#f56b60">†</text>
  <text x="310.80" y="252.00" fill="#f56b60">†</text>
  <text x="319.20" y="252.00" fill="#ea625c">+</text>
  <text x="327.60" y="252.00" fill="#ea625c">+</text>
  <text x="336.00" y="252.00" fill="#cb484c">¬</text>
  <text x="344.40" y="252.00" fill="#cb484c">¬</text>
  <text x="352.80" y="252.00" fill="#ea625c">+</text>
  <text x="361.20" y="252.00" fill="#ea625c">+</text>
  <text x="117.60" y="266.00" fill="#ffd9ae">%</text>
  <text x="126.00" y="266.00" fill="#ffd9ae">%</text>
  <text x="134.40" y="266.00" fill="#f3ebea">¥</text>
  <text x="142.80" y="266.00" fill="#f3ebea">¥</text>
  <text x="151.20" y="266.00" fill="#fefbfb">Ø</text>
  <text x="159.60" y="266.00" fill="#fefbfb">Ø</text>
  <text x="168.00" y="266.00" fill="#fefbfb">@</text>
  <text x="176.40" y="266.00" fill="#fefbfb">@</text>
  <text x="184.80" y="266.00" fill="#fefbfb">@</text>
  <text x="193.20" y="266.00" fill="#fefbfb">@</text>
  <text x="201.60" y="266.00" fill="#fefbfb">@</text>
  <text x="210.00" y="266.00" fill="#fefbfb">@</text>
  <text x="218.40" y="266.00" fill="#cc5454">=</text>
  <text x="226.80" y="266.00" fill="#cc5454">=</text>
  <text x="235.20" y="266.00" fill="#974c3b">¬</text>
  <text x="243.60" y="266.00" fill="#974c3b">¬</text>
  <text x="252.00" y="266.00" fill="#dd4c4f">=</text>
  <text x="260.40" y="266.00" fill="#dd4c4f">=</text>
  <text x="268.80" y="266.00" fill="#dd4c4f">=</text>
  <text x="277.20" y="266.00" fill="#dd4c4f">=</text>
  <text x="285.60" y="266.00" fill="#dd4c4f">=</text>
  <text x="294.00" y="266.00" fill="#dd4c4f">=</text>
  <text x="302.40" y="266.00" fill="#f55d56">+</text>
  <text x="310.80" y="266.00" fill="#f55d56">+</text>
  <text x="319.20" y="266.00" fill="#f55d56">+</text>
  <text x="327.60" y="266.00" fill="#f55d56">+</text>
  <text x="336.00" y="266.00" fill="#ea625c">+</text>
  <text x="344.40" y="266.00" fill="#ea625c">+</text>
  <text x="117.60" y="280.00" fill="#ffe3c3">&amp;</text>
  <text x="126.00" y="280.00" fill="#ffe3c3">&amp;</text>
  <text x="134.40" y="280.00" fill="#ffe3c3">&amp;</text>
  <text x="142.80" y="280.00" fill="#ffe3c3">&amp;</text>
  <text x="151.20" y="280.00" fill="#ffe3c3">&amp;</text>
  <text x="159.60" y="280.00" fill="#ffe3c3">&amp;</text>
  <text x="168.00" y="280.00" fill="#fefbfb">@</text>
  <text x="176.40" y="280.00" fill="#fefbfb">@</text>
  <text x="184.80" y="280.00" fill="#fefbfb">@</text>
  <text x="193.20" y="280.00" fill="#fefbfb">@</text>
  <text x="201.60" y="280.00" fill="#fefbfb">@</text>
  <text x="210.00" y="280.00" fill="#fefbfb">@</text>
  <text x="218.40" y="280.00" fill="#cc5454">=</text>
  <text x="226.80" y="280.00" fill="#cc5454">=</text>
  <text x="235.20" y="280.00" fill="#974c3b">¬</text>
  <text x="243.60" y="280.00" fill="#974c3b">¬</text>
  <text x="252.00" y="280.00" fill="#974c3b">¬</text>
  <text x="260.40" y="280.00" fill="#974c3b">¬</text>
  <text x="268.80" y="280.00" fill="#a7483d">¬</text>
  <text x="277.20" y="280.00" fill="#a7483d">¬</text>
  <text x="285.60" y="280.00" fill="#dd4c4f">=</text>
  <text x="294.00" y="280.00" fill="#dd4c4f">=</text>
  <text x="302.40" y="280.00" fill="#dd4c4f">=</text>
  <text x="310.80" y="280.00" fill="#dd4c4f">=</text>
  <text x="319.20" y="280.00" fill="#f55d56">+</text>
  <text x="327.60" y="280.00" fill="#f55d56">+</text>
  <text x="336.00" y="280.00" fill="#f55d56">+</text>
  <text x="344.40" y="280.00" fill="#f55d56">+</text>
  <text x="352.80" y="280.00" fill="#f55d56">+</text>
  <text x="361.20" y="280.00" fill="#f55d56">+</text>
  <text x="117.60" y="294.00" fill="#fdc3ab">%</text>
  <text x="126.00" y="294.00" fill="#fdc3ab">%</text>
  <text x="168.00" y="294.00" fill="#fefbfb">Ø</text>
  <text x="176.40" y="294.00" fill="#fefbfb">Ø</text>
  <text x="184.80" y="294.00" fill="#fefbfb">Ø</text>
  <text x="193.20" y="294.00" fill="#fefbfb">Ø</text>
  <text x="201.60" y="294.00" fill="#fefbfb">Ø</text>
  <text x="210.00" y="294.00" fill="#fefbfb">Ø</text>
  <text x="218.40" y="294.00" fill="#974c3b">¬</text>
  <text x="226.80" y="294.00" fill="#974c3b">¬</text>
  <text x="235.20" y="294.00" fill="#bc5f46">=</text>
  <text x="243.60" y="294.00" fill="#bc5f46">=</text>
  <text x="252.00" y="294.00" fill="#bc5f46">=</text>
  <text x="260.40" y="294.00" fill="#bc5f46">=</text>
  <text x="268.80" y="294.00" fill="#974c3b">¬</text>
  <text x="277.20" y="294.00" fill="#974c3b">¬</text>
  <text x="285.60" y="294.00" fill="#cb484c">¬</text>
  <text x="294.00" y="294.00" fill="#cb484c">¬</text>
  <text x="302.40" y="294.00" fill="#dd4c4f">=</text>
  <text x="310.80" y="294.00" fill="#dd4c4f">=</text>
  <text x="319.20" y="294.00" fill="#f55d56">+</text>
  <text x="327.60" y="294.00" fill="#f55d56">+</text>
  <text x="352.80" y="294.00" fill="#ec4e4d">=</text>
  <text x="361.20" y="294.00" fill="#ec4e4d">=</text>
  <text x="134.40" y="308.00" fill="#719de2">†</text>
  <text x="142.80" y="308.00" fill="#719de2">†</text>
  <text x="151.20" y="308.00" fill="#88b7e2">*</text>
  <text x="159.60" y="308.00" fill="#88b7e2">*</text>
  <text x="168.00" y="308.00" fill="#719de2">‡</text>
  <text x="176.40" y="308.00" fill="#719de2">‡</text>
  <text x="201.60" y="308.00" fill="#974c3b">¬</text>
  <text x="210.00" y="308.00" fill="#974c3b">¬</text>
  <text x="218.40" y="308.00" fill="#bc5f46">=</text>
  <text x="226.80" y="308.00" fill="#bc5f46">=</text>
  <text x="235.20" y="308.00" fill="#a45441">¬</text>
  <text x="243.60" y="308.00" fill="#a45441">¬</text>
  <text x="252.00" y="308.00" fill="#974c3b">¬</text>
  <text x="260.40" y="308.00" fill="#974c3b">¬</text>
  <text x="268.80" y="308.00" fill="#bc5f46">=</text>
  <text x="277.20" y="308.00" fill="#bc5f46">=</text>
  <text x="285.60" y="308.00" fill="#8c4536">:</text>
  <text x="294.00" y="308.00" fill="#8c4536">:</text>
  <text x="302.40" y="308.00" fill="#dd4c4f">=</text>
  <text x="310.80" y="308.00" fill="#dd4c4f">=</text>
  <text x="319.20" y="308.00" fill="#36201c">·</text>
  <text x="327.60" y="308.00" fill="#36201c">·</text>
  <text x="151.20" y="322.00" fill="#88b7e2">*</text>
  <text x="159.60" y="322.00" fill="#88b7e2">*</text>
  <text x="168.00" y="322.00" fill="#88b7e2">*</text>
  <text x="176.40" y="322.00" fill="#88b7e2">*</text>
  <text x="184.80" y="322.00" fill="#88b7e2">*</text>
  <text x="193.20" y="322.00" fill="#88b7e2">*</text>
  <text x="218.40" y="322.00" fill="#974c3b">¬</text>
  <text x="226.80" y="322.00" fill="#974c3b">¬</text>
  <text x="235.20" y="322.00" fill="#bc5f46">=</text>
  <text x="243.60" y="322.00" fill="#bc5f46">=</text>
  <text x="252.00" y="322.00" fill="#bc5f46">=</text>
  <text x="260.40" y="322.00" fill="#bc5f46">=</text>
  <text x="268.80" y="322.00" fill="#a45441">¬</text>
  <text x="277.20" y="322.00" fill="#a45441">¬</text>
  <text x="100.80" y="336.00" fill="#be867c">‡</text>
  <text x="109.20" y="336.00" fill="#be867c">‡</text>
  <text x="117.60" y="336.00" fill="#88b7e2">*</text>
  <text x="126.00" y="336.00" fill="#88b7e2">*</text>
  <text x="134.40" y="336.00" fill="#88b7e2">*</text>
  <text x="142.80" y="336.00" fill="#88b7e2">*</text>
  <text x="151.20" y="336.00" fill="#88b7e2">*</text>
  <text x="159.60" y="336.00" fill="#88b7e2">*</text>
  <text x="168.00" y="336.00" fill="#88b7e2">*</text>
  <text x="176.40" y="336.00" fill="#88b7e2">*</text>
  <text x="184.80" y="336.00" fill="#88b7e2">*</text>
  <text x="193.20" y="336.00" fill="#88b7e2">*</text>
  <text x="201.60" y="336.00" fill="#577dba">=</text>
  <text x="210.00" y="336.00" fill="#577dba">=</text>
  <text x="218.40" y="336.00" fill="#fbb49f">¤</text>
  <text x="226.80" y="336.00" fill="#fbb49f">¤</text>
  <text x="235.20" y="336.00" fill="#be867c">†</text>
  <text x="243.60" y="336.00" fill="#be867c">†</text>
  <text x="252.00" y="336.00" fill="#8c4536">:</text>
  <text x="260.40" y="336.00" fill="#8c4536">:</text>
  <text x="100.80" y="350.00" fill="#ffe7cf">¥</text>
  <text x="109.20" y="350.00" fill="#ffe7cf">¥</text>
  <text x="117.60" y="350.00" fill="#ffe7cf">¥</text>
  <text x="126.00" y="350.00" fill="#ffe7cf">¥</text>
  <text x="134.40" y="350.00" fill="#ffe7cf">¥</text>
  <text x="142.80" y="350.00" fill="#ffe7cf">¥</text>
  <text x="151.20" y="350.00" fill="#719de2">‡</text>
  <text x="159.60" y="350.00" fill="#719de2">‡</text>
  <text x="168.00" y="350.00" fill="#5e8adb">†</text>
  <text x="176.40" y="350.00" fill="#5e8adb">†</text>
  <text x="184.80" y="350.00" fill="#577dba">=</text>
  <text x="193.20" y="350.00" fill="#577dba">=</text>
  <text x="201.60" y="350.00" fill="#577dba">+</text>
  <text x="210.00" y="350.00" fill="#577dba">+</text>
  <text x="218.40" y="350.00" fill="#fdc3ab">§</text>
  <text x="226.80" y="350.00" fill="#fdc3ab">§</text>
  <text x="235.20" y="350.00" fill="#fbb49f">§</text>
  <text x="243.60" y="350.00" fill="#fbb49f">§</text>
  <text x="252.00" y="350.00" fill="#d4c9c9">§</text>
  <text x="260.40" y="350.00" fill="#d4c9c9">§</text>
  <text x="268.80" y="350.00" fill="#d4c9c9">§</text>
  <text x="277.20" y="350.00" fill="#d4c9c9">§</text>
  <text x="50.40" y="364.00" fill="#dbd1d1">%</text>
  <text x="58.80" y="364.00" fill="#dbd1d1">%</text>
  <text x="67.20" y="364.00" fill="#fefbfb">Ø</text>
  <text x="75.60" y="364.00" fill="#fefbfb">Ø</text>
  <text x="84.00" y="364.00" fill="#d4c9c9">§</text>
  <text x="92.40" y="364.00" fill="#d4c9c9">§</text>
  <text x="100.80" y="364.00" fill="#ffe7cf">¥</text>
  <text x="109.20" y="364.00" fill="#ffe7cf">¥</text>
  <text x="117.60" y="364.00" fill="#ffe7cf">¥</text>
  <text x="126.00" y="364.00" fill="#ffe7cf">¥</text>
  <text x="134.40" y="364.00" fill="#fbb49f">§</text>
  <text x="142.80" y="364.00" fill="#fbb49f">§</text>
  <text x="184.80" y="364.00" fill="#1d2d40">·</text>
  <text x="193.20" y="364.00" fill="#1d2d40">·</text>
  <text x="218.40" y="364.00" fill="#fdc3ab">§</text>
  <text x="226.80" y="364.00" fill="#fdc3ab">§</text>
  <text x="235.20" y="364.00" fill="#d4c9c9">§</text>
  <text x="243.60" y="364.00" fill="#d4c9c9">§</text>
  <text x="252.00" y="364.00" fill="#dbd1d1">%</text>
  <text x="260.40" y="364.00" fill="#dbd1d1">%</text>
  <text x="268.80" y="364.00" fill="#fefbfb">Ø</text>
  <text x="277.20" y="364.00" fill="#fefbfb">Ø</text>
  <text x="50.40" y="378.00" fill="#dbd1d1">%</text>
  <text x="58.80" y="378.00" fill="#dbd1d1">%</text>
  <text x="67.20" y="378.00" fill="#fefbfb">@</text>
  <text x="75.60" y="378.00" fill="#fefbfb">@</text>
  <text x="84.00" y="378.00" fill="#fefbfb">@</text>
  <text x="92.40" y="378.00" fill="#fefbfb">@</text>
  <text x="100.80" y="378.00" fill="#fefbfb">Ø</text>
  <text x="109.20" y="378.00" fill="#fefbfb">Ø</text>
  <text x="117.60" y="378.00" fill="#d4c9c9">§</text>
  <text x="126.00" y="378.00" fill="#d4c9c9">§</text>
  <text x="235.20" y="378.00" fill="#dbd1d1">%</text>
  <text x="243.60" y="378.00" fill="#dbd1d1">%</text>
  <text x="252.00" y="378.00" fill="#fefbfb">Ø</text>
  <text x="260.40" y="378.00" fill="#fefbfb">Ø</text>
  <text x="268.80" y="378.00" fill="#fefbfb">Ø</text>
  <text x="277.20" y="378.00" fill="#fefbfb">Ø</text>
  <text x="67.20" y="392.00" fill="#d4c9c9">§</text>
  <text x="75.60" y="392.00" fill="#d4c9c9">§</text>
  <text x="84.00" y="392.00" fill="#fefbfb">¥</text>
  <text x="92.40" y="392.00" fill="#fefbfb">¥</text>
  <text x="100.80" y="392.00" fill="#fefbfb">@</text>
  <text x="109.20" y="392.00" fill="#fefbfb">@</text>
  <text x="117.60" y="392.00" fill="#633a38">:</text>
  <text x="126.00" y="392.00" fill="#633a38">:</text>
  <text x="218.40" y="392.00" fill="#e5dddd">&amp;</text>
  <text x="226.80" y="392.00" fill="#e5dddd">&amp;</text>
  <text x="235.20" y="392.00" fill="#fefbfb">Ø</text>
  <text x="243.60" y="392.00" fill="#fefbfb">Ø</text>
  <text x="252.00" y="392.00" fill="#fefbfb">Ø</text>
  <text x="260.40" y="392.00" fill="#fefbfb">Ø</text>
  <text x="268.80" y="392.00" fill="#fefbfb">Ø</text>
  <text x="277.20" y="392.00" fill="#fefbfb">Ø</text>
  <text x="100.80" y="406.00" fill="#dbd1d1">%</text>
  <text x="109.20" y="406.00" fill="#dbd1d1">%</text>
  <text x="218.40" y="406.00" fill="#f3ebea">¥</text>
  <text x="226.80" y="406.00" fill="#f3ebea">¥</text>
  <text x="235.20" y="406.00" fill="#fefbfb">Ø</text>
  <text x="243.60" y="406.00" fill="#fefbfb">Ø</text>
  <text x="252.00" y="406.00" fill="#fefbfb">Ø</text>
  <text x="260.40" y="406.00" fill="#fefbfb">Ø</text>
  <text x="268.80" y="406.00" fill="#e5dddd">&amp;</text>
  <text x="277.20" y="406.00" fill="#e5dddd">&amp;</text>
</svg>
