<svg xmlns="http://www.w3.org/2000/svg" width="268.80" height="280.00" font-family="monospace" font-size="14">
  <text x="100.80" y="14.00" fill="#fac897">%</text>
  <text x="109.20" y="14.00" fill="#fac897">%</text>
  <text x="117.60" y="14.00" fill="#fac897">%</text>
  <text x="126.00" y="14.00" fill="#fac897">%</text>
  <text x="134.40" y="14.00" fill="#fac897">%</text>
  <text x="142.80" y="14.00" fill="#fac897">%</text>
  <text x="151.20" y="14.00" fill="#fac897">%</text>
  <text x="159.60" y="14.00" fill="#fac897">%</text>
  <text x="168.00" y="14.00" fill="#fac897">%</text>
  <text x="176.40" y="14.00" fill="#fac897">%</text>
  <text x="84.00" y="28.00" fill="#fac897">%</text>
  <text x="92.40" y="28.00" fill="#fac897">%</text>
  <text x="100.80" y="28.00" fill="#fac897">&amp;</text>
  <text x="109.20" y="28.00" fill="#fac897">&amp;</text>
  <text x="117.60" y="28.00" fill="#fbcdb5">&amp;</text>
  <text x="126.00" y="28.00" fill="#fbcdb5">&amp;</text>
  <text x="134.40" y="28.00" fill="#fbcdb5">&amp;</text>
  <text x="142.80" y="28.00" fill="#fbcdb5">&amp;</text>
  <text x="151.20" y="28.00" fill="#fbcdb5">&amp;</text>
  <text x="159.60" y="28.00" fill="#fbcdb5">&amp;</text>
  <text x="168.00" y="28.00" fill="#fbcdb5">&amp;</text>
  <text x="176.40" y="28.00" fill="#fbcdb5">&amp;</text>
  <text x="184.80" y="28.00" fill="#fbcdb5">&amp;</text>
  <text x="193.20" y="28.00" fill="#fbcdb5">&amp;</text>
  <text x="67.20" y="42.00" fill="#fbcdb5">&amp;</text>
  <text x="75.60" y="42.00" fill="#fbcdb5">&amp;</text>
  <text x="84.00" y="42.00" fill="#fddfc8">¥</text>
  <text x="92.40" y="42.00" fill="#fddfc8">¥</text>
  <text x="100.80" y="42.00" fill="#fbcdb5">&amp;</text>
  <text x="109.20" y="42.00" fill="#fbcdb5">&amp;</text>
  <text x="117.60" y="42.00" fill="#fbcdb5">&amp;</text>
  <text x="126.00" y="42.00" fill="#fbcdb5">&amp;</text>
  <text x="134.40" y="42.00" fill="#fbcdb5">&amp;</text>
  <text x="142.80" y="42.00" fill="#fbcdb5">&amp;</text>
  <text x="151.20" y="42.00" fill="#fbcdb5">&amp;</text>
  <text x="159.60" y="42.00" fill="#fbcdb5">&amp;</text>
  <text x="168.00" y="42.00" fill="#fbcdb5">&amp;</text>
  <text x="176.40" y="42.00" fill="#fbcdb5">&amp;</text>
  <text x="184.80" y="42.00" fill="#fddfc8">¥</text>
  <text x="193.20" y="42.00" fill="#fddfc8">¥</text>
  <text x="201.60" y="42.00" fill="#fac897">%</text>
  <text x="210.00" y="42.00" fill="#fac897">%</text>
  <text x="50.40" y="56.00" fill="#fac897">§</text>
  <text x="58.80" y="56.00" fill="#fac897">§</text>
  <text x="67.20" y="56.00" fill="#fbcdb5">&amp;</text>
  <text x="75.60" y="56.00" fill="#fbcdb5">&amp;</text>
  <text x="84.00" y="56.00" fill="#fddfc8">¥</text>
  <text x="92.40" y="56.00" fill="#fddfc8">¥</text>
  <text x="100.80" y="56.00" fill="#fddfc8">¥</text>
  <text x="109.20" y="56.00" fill="#fddfc8">¥</text>
  <text x="117.60" y="56.00" fill="#fbcdb5">&amp;</text>
  <text x="126.00" y="56.00" fill="#fbcdb5">&amp;</text>
  <text x="134.40" y="56.00" fill="#fbcdb5">&amp;</text>
  <text x="142.80" y="56.00" fill="#fbcdb5">&amp;</text>
  <text x="151.20" y="56.00" fill="#fbcdb5">&amp;</text>
  <text x="159.60" y="56.00" fill="#fbcdb5">&amp;</text>
  <text x="168.00" y="56.00" fill="#fddfc8">¥</text>
  <text x="176.40" y="56.00" fill="#fddfc8">¥</text>
  <text x="184.80" y="56.00" fill="#fddfc8">¥</text>
  <text x="193.20" y="56.00" fill="#fddfc8">¥</text>
  <text x="201.60" y="56.00" fill="#fac897">%</text>
  <text x="210.00" y="56.00" fill="#fac897">%</text>
  <text x="218.40" y="56.00" fill="#fac897">§</text>
  <text x="226.80" y="56.00" fill="#fac897">§</text>
  <text x="33.60" y="70.00" fill="#fac897">§</text>
  <text x="42.00" y="70.00" fill="#fac897">§</text>
  <text x="50.40" y="70.00" fill="#d45856">+</text>
  <text x="58.80" y="70.00" fill="#d45856">+</text>
  <text x="67.20" y="70.00" fill="#fac897">&amp;</text>
  <text x="75.60" y="70.00" fill="#fac897">&amp;</text>
  <text x="84.00" y="70.00" fill="#fbcdb5">&amp;</text>
  <text x="92.40" y="70.00" fill="#fbcdb5">&amp;</text>
  <text x="100.80" y="70.00" fill="#fbcdb5">&amp;</text>
  <text x="109.20" y="70.00" fill="#fbcdb5">&amp;</text>
  <text x="117.60" y="70.00" fill="#fddfc8">¥</text>
  <text x="126.00" y="70.00" fill="#fddfc8">¥</text>
  <text x="134.40" y="70.00" fill="#fddfc8">¥</text>
  <text x="142.80" y="70.00" fill="#fddfc8">¥</text>
  <text x="151.20" y="70.00" fill="#fddfc8">¥</text>
  <text x="159.60" y="70.00" fill="#fddfc8">¥</text>
  <text x="168.00" y="70.00" fill="#fbcdb5">&amp;</text>
  <text x="176.40" y="70.00" fill="#fbcdb5">&amp;</text>
  <text x="184.80" y="70.00" fill="#fac897">&amp;</text>
  <text x="193.20" y="70.00" fill="#fac897">&amp;</text>
  <text x="201.60" y="70.00" fill="#fac897">%</text>
  <text x="210.00" y="70.00" fill="#fac897">%</text>
  <text x="218.40" y="70.00" fill="#d45856">+</text>
  <text x="226.80" y="70.00" fill="#d45856">+</text>
  <text x="235.20" y="70.00" fill="#fac897">%</text>
  <text x="243.60" y="70.00" fill="#fac897">%</text>
  <text x="16.80" y="84.00" fill="#fbcdb5">&amp;</text>
  <text x="25.20" y="84.00" fill="#fbcdb5">&amp;</text>
  <text x="33.60" y="84.00" fill="#fddfc8">¥</text>
  <text x="42.00" y="84.00" fill="#fddfc8">¥</text>
  <text x="50.40" y="84.00" fill="#d45856">+</text>
  <text x="58.80" y="84.00" fill="#d45856">+</text>
  <text x="67.20" y="84.00" fill="#dc5f5b">+</text>
  <text x="75.60" y="84.00" fill="#dc5f5b">+</text>
  <text x="84.00" y="84.00" fill="#fac897">&amp;</text>
  <text x="92.40" y="84.00" fill="#fac897">&amp;</text>
  <text x="100.80" y="84.00" fill="#fbcdb5">&amp;</text>
  <text x="109.20" y="84.00" fill="#fbcdb5">&amp;</text>
  <text x="117.60" y="84.00" fill="#fbcdb5">&amp;</text>
  <text x="126.00" y="84.00" fill="#fbcdb5">&amp;</text>
  <text x="134.40" y="84.00" fill="#fac897">&amp;</text>
  <text x="142.80" y="84.00" fill="#fac897">&amp;</text>
  <text x="151.20" y="84.00" fill="#fac897">&amp;</text>
  <text x="159.60" y="84.00" fill="#fac897">&amp;</text>
  <text x="168.00" y="84.00" fill="#fac897">&amp;</text>
  <text x="176.40" y="84.00" fill="#fac897">&amp;</text>
  <text x="184.80" y="84.00" fill="#fac897">%</text>
  <text x="193.20" y="84.00" fill="#fac897">%</text>
  <text x="201.60" y="84.00" fill="#d45856">+</text>
  <text x="210.00" y="84.00" fill="#d45856">+</text>
  <text x="218.40" y="84.00" fill="#d45856">+</text>
  <text x="226.80" y="84.00" fill="#d45856">+</text>
  <text x="235.20" y="84.00" fill="#fbcdb5">¥</text>
  <text x="243.60" y="84.00" fill="#fbcdb5">¥</text>
  <text x="252.00" y="84.00" fill="#fbcdb5">&amp;</text>
  <text x="260.40" y="84.00" fill="#fbcdb5">&amp;</text>
  <text x="16.80" y="98.00" fill="#fac897">%</text>
  <text x="25.20" y="98.00" fill="#fac897">%</text>
  <text x="33.60" y="98.00" fill="#fddfc8">¥</text>
  <text x="42.00" y="98.00" fill="#fddfc8">¥</text>
  <text x="50.40" y="98.00" fill="#fac897">%</text>
  <text x="58.80" y="98.00" fill="#fac897">%</text>
  <text x="67.20" y="98.00" fill="#d45856">+</text>
  <text x="75.60" y="98.00" fill="#d45856">+</text>
  <text x="84.00" y="98.00" fill="#dc5f5b">+</text>
  <text x="92.40" y="98.00" fill="#dc5f5b">+</text>
  <text x="100.80" y="98.00" fill="#dc5f5b">+</text>
  <text x="109.20" y="98.00" fill="#dc5f5b">+</text>
  <text x="117.60" y="98.00" fill="#dc5f5b">+</text>
  <text x="126.00" y="98.00" fill="#dc5f5b">+</text>
  <text x="134.40" y="98.00" fill="#dc5f5b">+</text>
  <text x="142.80" y="98.00" fill="#dc5f5b">+</text>
  <text x="151.20" y="98.00" fill="#dc5f5b">+</text>
  <text x="159.60" y="98.00" fill="#dc5f5b">+</text>
  <text x="168.00" y="98.00" fill="#dc5f5b">+</text>
  <text x="176.40" y="98.00" fill="#dc5f5b">+</text>
  <text x="184.80" y="98.00" fill="#dc5f5b">†</text>
  <text x="193.20" y="98.00" fill="#dc5f5b">†</text>
  <text x="201.60" y="98.00" fill="#e47a6c">‡</text>
  <text x="210.00" y="98.00" fill="#e47a6c">‡</text>
  <text x="218.40" y="98.00" fill="#fac897">%</text>
  <text x="226.80" y="98.00" fill="#fac897">%</text>
  <text x="235.20" y="98.00" fill="#fddfc8">¥</text>
  <text x="243.60" y="98.00" fill="#fddfc8">¥</text>
  <text x="252.00" y="98.00" fill="#fac897">%</text>
  <text x="260.40" y="98.00" fill="#fac897">%</text>
  <text x="33.60" y="112.00" fill="#ebac7c">¤</text>
  <text x="42.00" y="112.00" fill="#ebac7c">¤</text>
  <text x="50.40" y="112.00" fill="#fddfc8">¥</text>
  <text x="58.80" y="112.00" fill="#fddfc8">¥</text>
  <text x="67.20" y="112.00" fill="#fddfc8">¥</text>
  <text x="75.60" y="112.00" fill="#fddfc8">¥</text>
  <text x="84.00" y="112.00" fill="#fac897">§</text>
  <text x="92.40" y="112.00" fill="#fac897">§</text>
  <text x="100.80" y="112.00" fill="#fac897">%</text>
  <text x="109.20" y="112.00" fill="#fac897">%</text>
  <text x="117.60" y="112.00" fill="#fac897">%</text>
  <text x="126.00" y="112.00" fill="#fac897">%</text>
  <text x="134.40" y="112.00" fill="#fac897">%</text>
  <text x="142.80" y="112.00" fill="#fac897">%</text>
  <text x="151.20" y="112.00" fill="#fac897">%</text>
  <text x="159.60" y="112.00" fill="#fac897">%</text>
  <text x="168.00" y="112.00" fill="#fac897">§</text>
  <text x="176.40" y="112.00" fill="#fac897">§</text>
  <text x="184.80" y="112.00" fill="#fac897">§</text>
  <text x="193.20" y="112.00" fill="#fac897">§</text>
  <text x="201.60" y="112.00" fill="#fddfc8">¥</text>
  <text x="210.00" y="112.00" fill="#fddfc8">¥</text>
  <text x="218.40" y="112.00" fill="#fddfc8">¥</text>
  <text x="226.80" y="112.00" fill="#fddfc8">¥</text>
  <text x="235.20" y="112.00" fill="#ebac7c">¤</text>
  <text x="243.60" y="112.00" fill="#ebac7c">¤</text>
  <text x="33.60" y="126.00" fill="#be4f50">=</text>
  <text x="42.00" y="126.00" fill="#be4f50">=</text>
  <text x="50.40" y="126.00" fill="#d45856">+</text>
  <text x="58.80" y="126.00" fill="#d45856">+</text>
  <text x="67.20" y="126.00" fill="#e69075">*</text>
  <text x="75.60" y="126.00" fill="#e69075">*</text>
  <text x="84.00" y="126.00" fill="#fbcdb5">&amp;</text>
  <text x="92.40" y="126.00" fill="#fbcdb5">&amp;</text>
  <text x="100.80" y="126.00" fill="#fbcdb5">&amp;</text>
  <text x="109.20" y="126.00" fill="#fbcdb5">&amp;</text>
  <text x="117.60" y="126.00" fill="#fbcdb5">&amp;</text>
  <text x="126.00" y="126.00" fill="#fbcdb5">&amp;</text>
  <text x="134.40" y="126.00" fill="#fbcdb5">&amp;</text>
  <text x="142.80" y="126.00" fill="#fbcdb5">&amp;</text>
  <text x="151.20" y="126.00" fill="#fbcdb5">&amp;</text>
  <text x="159.60" y="126.00" fill="#fbcdb5">&amp;</text>
  <text x="168.00" y="126.00" fill="#fbcdb5">&amp;</text>
  <text x="176.40" y="126.00" fill="#fbcdb5">&amp;</text>
  <text x="184.80" y="126.00" fill="#fbcdb5">&amp;</text>
  <text x="193.20" y="126.00" fill="#fbcdb5">&amp;</text>
  <text x="201.60" y="126.00" fill="#e69075">*</text>
  <text x="210.00" y="126.00" fill="#e69075">*</text>
  <text x="218.40" y="126.00" fill="#d45856">+</text>
  <text x="226.80" y="126.00" fill="#d45856">+</text>
  <text x="235.20" y="126.00" fill="#cc5454">=</text>
  <text x="243.60" y="126.00" fill="#cc5454">=</text>
  <text x="16.80" y="140.00" fill="#ed6a61">†</text>
  <text x="25.20" y="140.00" fill="#ed6a61">†</text>
  <text x="33.60" y="140.00" fill="#be4f50">=</text>
  <text x="42.00" y="140.00" fill="#be4f50">=</text>
  <text x="50.40" y="140.00" fill="#ed6a61">†</text>
  <text x="58.80" y="140.00" fill="#ed6a61">†</text>
  <text x="67.20" y="140.00" fill="#d45856">+</text>
  <text x="75.60" y="140.00" fill="#d45856">+</text>
  <text x="84.00" y="140.00" fill="#d45856">+</text>
  <text x="92.40" y="140.00" fill="#d45856">+</text>
  <text x="100.80" y="140.00" fill="#cc5454">=</text>
  <text x="109.20" y="140.00" fill="#cc5454">=</text>
  <text x="117.60" y="140.00" fill="#d45856">+</text>
  <text x="126.00" y="140.00" fill="#d45856">+</text>
  <text x="134.40" y="140.00" fill="#d45856">+</text>
  <text x="142.80" y="140.00" fill="#d45856">+</text>
  <text x="151.20" y="140.00" fill="#d45856">+</text>
  <text x="159.60" y="140.00" fill="#d45856">+</text>
  <text x="168.00" y="140.00" fill="#d45856">+</text>
  <text x="176.40" y="140.00" fill="#d45856">+</text>
  <text x="184.80" y="140.00" fill="#d45856">+</text>
  <text x="193.20" y="140.00" fill="#d45856">+</text>
  <text x="201.60" y="140.00" fill="#dc5f5b">+</text>
  <text x="210.00" y="140.00" fill="#dc5f5b">+</text>
  <text x="218.40" y="140.00" fill="#ed6a61">†</text>
  <text x="226.80" y="140.00" fill="#ed6a61">†</text>
  <text x="235.20" y="140.00" fill="#be4f50">=</text>
  <text x="243.60" y="140.00" fill="#be4f50">=</text>
  <text x="252.00" y="140.00" fill="#ed6a61">†</text>
  <text x="260.40" y="140.00" fill="#ed6a61">†</text>
  <text x="16.80" y="154.00" fill="#ed6a61">†</text>
  <text x="25.20" y="154.00" fill="#ed6a61">†</text>
  <text x="33.60" y="154.00" fill="#be4f50">=</text>
  <text x="42.00" y="154.00" fill="#be4f50">=</text>
  <text x="50.40" y="154.00" fill="#ed6a61">†</text>
  <text x="58.80" y="154.00" fill="#ed6a61">†</text>
  <text x="67.20" y="154.00" fill="#d45856">+</text>
  <text x="75.60" y="154.00" fill="#d45856">+</text>
  <text x="84.00" y="154.00" fill="#ed6a61">†</text>
  <text x="92.40" y="154.00" fill="#ed6a61">†</text>
  <text x="100.80" y="154.00" fill="#d45856">+</text>
  <text x="109.20" y="154.00" fill="#d45856">+</text>
  <text x="117.60" y="154.00" fill="#ed6a61">†</text>
  <text x="126.00" y="154.00" fill="#ed6a61">†</text>
  <text x="134.40" y="154.00" fill="#ed6a61">†</text>
  <text x="142.80" y="154.00" fill="#ed6a61">†</text>
  <text x="151.20" y="154.00" fill="#ed6a61">†</text>
  <text x="159.60" y="154.00" fill="#ed6a61">†</text>
  <text x="168.00" y="154.00" fill="#d45856">+</text>
  <text x="176.40" y="154.00" fill="#d45856">+</text>
  <text x="184.80" y="154.00" fill="#ed6a61">†</text>
  <text x="193.20" y="154.00" fill="#ed6a61">†</text>
  <text x="201.60" y="154.00" fill="#ed6a61">†</text>
  <text x="210.00" y="154.00" fill="#ed6a61">†</text>
  <text x="218.40" y="154.00" fill="#ed6a61">†</text>
  <text x="226.80" y="154.00" fill="#ed6a61">†</text>
  <text x="235.20" y="154.00" fill="#cc5454">=</text>
  <text x="243.60" y="154.00" fill="#cc5454">=</text>
  <text x="252.00" y="154.00" fill="#dc5f5b">+</text>
  <text x="260.40" y="154.00" fill="#dc5f5b">+</text>
  <text x="33.60" y="168.00" fill="#d45856">+</text>
  <text x="42.00" y="168.00" fill="#d45856">+</text>
  <text x="50.40" y="168.00" fill="#ed6a61">†</text>
  <text x="58.80" y="168.00" fill="#ed6a61">†</text>
  <text x="67.20" y="168.00" fill="#dc5f5b">+</text>
  <text x="75.60" y="168.00" fill="#dc5f5b">+</text>
  <text x="84.00" y="168.00" fill="#ed6a61">†</text>
  <text x="92.40" y="168.00" fill="#ed6a61">†</text>
  <text x="100.80" y="168.00" fill="#d45856">+</text>
  <text x="109.20" y="168.00" fill="#d45856">+</text>
  <text x="117.60" y="168.00" fill="#ed6a61">†</text>
  <text x="126.00" y="168.00" fill="#ed6a61">†</text>
  <text x="134.40" y="168.00" fill="#ed6a61">†</text>
  <text x="142.80" y="168.00" fill="#ed6a61">†</text>
  <text x="151.20" y="168.00" fill="#ed6a61">†</text>
  <text x="159.60" y="168.00" fill="#ed6a61">†</text>
  <text x="168.00" y="168.00" fill="#d45856">+</text>
  <text x="176.40" y="168.00" fill="#d45856">+</text>
  <text x="184.80" y="168.00" fill="#ed6a61">†</text>
  <text x="193.20" y="168.00" fill="#ed6a61">†</text>
  <text x="201.60" y="168.00" fill="#ed6a61">†</text>
  <text x="210.00" y="168.00" fill="#ed6a61">†</text>
  <text x="218.40" y="168.00" fill="#cc5454">=</text>
  <text x="226.80" y="168.00" fill="#cc5454">=</text>
  <text x="235.20" y="168.00" fill="#cc5454">=</text>
  <text x="243.60" y="168.00" fill="#cc5454">=</text>
  <text x="33.60" y="182.00" fill="#dc5f5b">¬</text>
  <text x="42.00" y="182.00" fill="#dc5f5b">¬</text>
  <text x="50.40" y="182.00" fill="#be4f50">:</text>
  <text x="58.80" y="182.00" fill="#be4f50">:</text>
  <text x="67.20" y="182.00" fill="#dc5f5b">¬</text>
  <text x="75.60" y="182.00" fill="#dc5f5b">¬</text>
  <text x="84.00" y="182.00" fill="#ed6a61">=</text>
  <text x="92.40" y="182.00" fill="#ed6a61">=</text>
  <text x="100.80" y="182.00" fill="#e0d1cb">%</text>
  <text x="109.20" y="182.00" fill="#e0d1cb">%</text>
  <text x="117.60" y="182.00" fill="#dc5f5b">¬</text>
  <text x="126.00" y="182.00" fill="#dc5f5b">¬</text>
  <text x="134.40" y="182.00" fill="#ed6a61">=</text>
  <text x="142.80" y="182.00" fill="#ed6a61">=</text>
  <text x="151.20" y="182.00" fill="#ed6a61">=</text>
  <text x="159.60" y="182.00" fill="#ed6a61">=</text>
  <text x="168.00" y="182.00" fill="#be4f50">:</text>
  <text x="176.40" y="182.00" fill="#be4f50">:</text>
  <text x="184.80" y="182.00" fill="#ed6a61">=</text>
  <text x="193.20" y="182.00" fill="#ed6a61">=</text>
  <text x="201.60" y="182.00" fill="#ed6a61">=</text>
  <text x="210.00" y="182.00" fill="#ed6a61">=</text>
  <text x="218.40" y="182.00" fill="#cc5454">:</text>
  <text x="226.80" y="182.00" fill="#cc5454">:</text>
  <text x="235.20" y="182.00" fill="#cc5454">:</text>
  <text x="243.60" y="182.00" fill="#cc5454">:</text>
  <text x="50.40" y="196.00" fill="#d45856">:</text>
  <text x="58.80" y="196.00" fill="#d45856">:</text>
  <text x="84.00" y="196.00" fill="#dc5f5b">¬</text>
  <text x="92.40" y="196.00" fill="#dc5f5b">¬</text>
  <text x="100.80" y="196.00" fill="#f0eceb">¥</text>
  <text x="109.20" y="196.00" fill="#f0eceb">¥</text>
  <text x="117.60" y="196.00" fill="#fffffd">@</text>
  <text x="126.00" y="196.00" fill="#fffffd">@</text>
  <text x="134.40" y="196.00" fill="#965c49">:</text>
  <text x="142.80" y="196.00" fill="#965c49">:</text>
  <text x="151.20" y="196.00" fill="#965c49">·</text>
  <text x="159.60" y="196.00" fill="#965c49">·</text>
  <text x="168.00" y="196.00" fill="#f0eceb">¥</text>
  <text x="176.40" y="196.00" fill="#f0eceb">¥</text>
  <text x="184.80" y="196.00" fill="#ed6a61">=</text>
  <text x="193.20" y="196.00" fill="#ed6a61">=</text>
  <text x="201.60" y="196.00" fill="#be4f50">·</text>
  <text x="210.00" y="196.00" fill="#be4f50">·</text>
  <text x="218.40" y="196.00" fill="#be4f50">:</text>
  <text x="226.80" y="196.00" fill="#be4f50">:</text>
  <text x="84.00" y="210.00" fill="#fbcdb5">%</text>
  <text x="92.40" y="210.00" fill="#fbcdb5">%</text>
  <text x="100.80" y="210.00" fill="#ab8275">=</text>
  <text x="109.20" y="210.00" fill="#ab8275">=</text>
  <text x="117.60" y="210.00" fill="#965c49">·</text>
  <text x="126.00" y="210.00" fill="#965c49">·</text>
  <text x="134.40" y="210.00" fill="#8d5c4d">·</text>
  <text x="142.80" y="210.00" fill="#8d5c4d">·</text>
  <text x="151.20" y="210.00" fill="#fbfdfc">@</text>
  <text x="159.60" y="210.00" fill="#fbfdfc">@</text>
  <text x="168.00" y="210.00" fill="#cdd6e0">%</text>
  <text x="176.40" y="210.00" fill="#cdd6e0">%</text>
  <text x="84.00" y="224.00" fill="#dfb39f">*</text>
  <text x="92.40" y="224.00" fill="#dfb39f">*</text>
  <text x="100.80" y="224.00" fill="#aa674d">:</text>
  <text x="109.20" y="224.00" fill="#aa674d">:</text>
  <text x="117.60" y="224.00" fill="#8a6457">:</text>
  <text x="126.00" y="224.00" fill="#8a6457">:</text>
  <text x="134.40" y="224.00" fill="#8ab4e2">‡</text>
  <text x="142.80" y="224.00" fill="#8ab4e2">‡</text>
  <text x="151.20" y="224.00" fill="#8ab4e2">‡</text>
  <text x="159.60" y="224.00" fill="#8ab4e2">‡</text>
  <text x="168.00" y="224.00" fill="#9cb7d7">*</text>
  <text x="176.40" y="224.00" fill="#9cb7d7">*</text>
  <text x="184.80" y="224.00" fill="#6d93bd">+</text>
  <text x="193.20" y="224.00" fill="#6d93bd">+</text>
  <text x="84.00" y="238.00" fill="#8c5645">·</text>
  <text x="92.40" y="238.00" fill="#8c5645">·</text>
  <text x="100.80" y="238.00" fill="#aa674d">:</text>
  <text x="109.20" y="238.00" fill="#aa674d">:</text>
  <text x="117.60" y="238.00" fill="#93bbe6">*</text>
  <text x="126.00" y="238.00" fill="#93bbe6">*</text>
  <text x="134.40" y="238.00" fill="#6d93bd">=</text>
  <text x="142.80" y="238.00" fill="#6d93bd">=</text>
  <text x="151.20" y="238.00" fill="#fbcdb5">%</text>
  <text x="159.60" y="238.00" fill="#fbcdb5">%</text>
  <text x="168.00" y="238.00" fill="#ffd3c2">%</text>
  <text x="176.40" y="238.00" fill="#ffd3c2">%</text>
  <text x="184.80" y="238.00" fill="#2b2b2f">·</text>
  <text x="193.20" y="238.00" fill="#2b2b2f">·</text>
  <text x="100.80" y="252.00" fill="#ffd3c2">%</text>
  <text x="109.20" y="252.00" fill="#ffd3c2">%</text>
  <text x="117.60" y="252.00" fill="#e0d1cb">§</text>
  <text x="126.00" y="252.00" fill="#e0d1cb">§</text>
  <text x="134.40" y="252.00" fill="#ac8b83">+</text>
  <text x="142.80" y="252.00" fill="#ac8b83">+</text>
  <text x="151.20" y="252.00" fill="#fbcdb5">%</text>
  <text x="159.60" y="252.00" fill="#fbcdb5">%</text>
  <text x="168.00" y="252.00" fill="#4d2d2b">·</text>
  <text x="176.40" y="252.00" fill="#4d2d2b">·</text>
  <text x="134.40" y="266.00" fill="#fddfc8">&amp;</text>
  <text x="142.80" y="266.00" fill="#fddfc8">&amp;</text>
  <text x="151.20" y="266.00" fill="#fffffd">@</text>
  <text x="159.60" y="266.00" fill="#fffffd">@</text>
  <text x="168.00" y="266.00" fill="#2b2b2f">·</text>
  <text x="176.40" y="266.00" fill="#2b2b2f">·</text>
  <text x="151.20" y="280.00" fill="#f9f6f4">Ø</text>
  <text x="159.60" y="280.00" fill="#f9f6f4">Ø</text>
</svg>
